<svg xmlns="http://www.w3.org/2000/svg" xmlns:xlink="http://www.w3.org/1999/xlink" viewBox="0 0 100 125" version="1.1" x="0px" y="0px">
  <g stroke="none" stroke-width="1" fill-rule="evenodd">
    <g fill="#808080">
      <path d="M26.0270897,25 L10.0000638,25 C4.47473288,25 0,29.4752739 0,34.995804 L0,77.004196 C0,82.5161718 4.47718108,87 10.0000638,87 L89.9999362,87 C95.5252671,87 100,82.5247261 100,77.004196 L100,34.995804 C100,29.4838282 95.5228189,25 89.9999362,25 L74.0401713,25 C72,25 72,22.9900582 72,22.9900582 C72,17.4676442 67.5237268,13 62.001964,13 L37.998036,13 C32.4815256,13 27.989172,17.4727012 27.989172,22.9900579 C27.989172,22.9900579 27.989172,25 26.0270897,25 L26.0270897,25 Z M50,75 C60.4934102,75 69,66.4934102 69,56 C69,45.5065898 60.4934102,37 50,37 C39.5065898,37 31,45.5065898 31,56 C31,66.4934102 39.5065898,75 50,75 L50,75 Z M52,54 L52,46.0049466 C52,44.8970262 51.1045695,44 50,44 C48.8877296,44 48,44.8976452 48,46.0049466 L48,54 L40.0049466,54 C38.8970262,54 38,54.8954305 38,56 C38,57.1122704 38.8976452,58 40.0049466,58 L48,58 L48,65.9950534 C48,67.1029738 48.8954305,68 50,68 C51.1122704,68 52,67.1023548 52,65.9950534 L52,58 L59.9950534,58 C61.1029738,58 62,57.1045695 62,56 C62,54.8877296 61.1023548,54 59.9950534,54 L52,54 L52,54 Z"/>
    </g>
  </g>
</svg>
